<svg id="Layer_1" data-name="Layer 1" xmlns="http://www.w3.org/2000/svg" viewBox="0 0 82.31 92.71"><defs><style>.cls-1,.cls-11{fill:#bcd365;}.cls-2{fill:#edbec2;}.cls-3{fill:#bb845e;}.cls-4{fill:#a37a5f;}.cls-5{fill:#899343;}.cls-10,.cls-6{fill:none;}.cls-6{stroke:#000;stroke-width:1.02px;}.cls-10,.cls-6,.cls-8,.cls-9{stroke-miterlimit:10;}.cls-7{fill:#6e5747;}.cls-8{fill:#afafaf;stroke-width:0.76px;}.cls-10,.cls-8,.cls-9{stroke:#000100;}.cls-9{fill:#fff;}.cls-10,.cls-9{stroke-width:0.53px;}.cls-11{stroke:#090605;stroke-linecap:round;stroke-linejoin:round;stroke-width:0.95px;}</style></defs><title>favicon</title><path class="cls-1" d="M670.29,413.4s-3.59-9.75-5.91-11.63l.41-2.25s-4.2,5.72-8.61,5.44-8-3.55-8.53-4.8-1.47-5.79.43-7.41,1.36-3.34,4.88-1.16,3.86,4.41,3.86,4.41l3.89-.76s-22.87-34.57,10.64-49.65a30.36,30.36,0,0,1,31.87,13.48c5.88,14.46,4.93,17.13,4.91,18.5-.1,5.23-1,5.68-1,5.68s7.42-15,14.62-11.94,1.78,20.48-16,23.63c0,0-7.32,13.3-12.07,16.56C693.69,411.5,674.42,414.89,670.29,413.4Z" transform="translate(-644.5 -338.37)"/><path class="cls-2" d="M676.92,381.61a7.72,7.72,0,0,0,4.48,4.74c3.7,1.59,5.66-.57,6.25-.24s-1.52-4-1.52-4-6-1.29-5.9-1.29Z" transform="translate(-644.5 -338.37)"/><path d="M726.34,385.52l-3.71-.42a13,13,0,0,0,2.54-7.64c-.11-3-1.34-5.18-3.44-6.15a5.87,5.87,0,0,0-1.44-.44l1.27-3.93a.52.52,0,0,0-.33-.66.53.53,0,0,0-.67.34l-1.33,4.15a8.37,8.37,0,0,0-5.17,1.77c-2.34,1.85-4.54,5.54-5.82,8,0-7.78.26-12.49-4.57-20.74a32.21,32.21,0,0,0-12.47-12.09l1.44-2.9a.53.53,0,0,0-.24-.71.52.52,0,0,0-.7.24l-1.44,2.89a25.69,25.69,0,0,0-14.71-2.5l-.22-5.81a.53.53,0,0,0-1.05,0l.22,5.93a26.9,26.9,0,0,0-5.25,1.46c-.81.31-1.59.65-2.34,1L663.62,343a.51.51,0,0,0-.73-.1.51.51,0,0,0-.1.73l3.16,4.16c-6,3.07-10,7.48-12,13.16a27.47,27.47,0,0,0-1.39,9.34l-5,0a.51.51,0,0,0-.53.51.52.52,0,0,0,.53.53l5.08,0a39.57,39.57,0,0,0,.43,4.27l-1.68.63a.54.54,0,0,0-.3.68.53.53,0,0,0,.51.34l.17,0,1.47-.56a52.18,52.18,0,0,0,1.76,7,65.71,65.71,0,0,0,4.6,10.75c-.62.14-1.27.26-1.9.36a1.6,1.6,0,0,1-1.18-1.05h0a6.46,6.46,0,0,0-4.35-3.61,4.33,4.33,0,0,0-3.49.41c-.26-.68-.48-1.29-.56-1.55a.52.52,0,1,0-1,.29c.1.35.41,1.19.72,2a4.51,4.51,0,0,0-.68,1.05,10,10,0,0,0-.53,4l-1.57.06a.53.53,0,0,0-.51.54.54.54,0,0,0,.55.51l1.66-.07A10.71,10.71,0,0,0,648.8,402c1.94,2.49,4.89,4.12,7.27,4h.19c2.12-.17,4.19-1.69,5.79-3.26,0,0,.6-.54.91-.43.09,0,.48-1.54,1.42-.54,1.28,1.33,3,5.7,4.9,11.67.34.1.66-.13,1,0,.18-2-5.5-13.88-5.5-13.88.17-.24.28-.39.3-.43a.54.54,0,0,0-.14-.73.53.53,0,0,0-.73.15s-.23.34-.61.85a5.23,5.23,0,0,1-.43.58c-.17.21-.37.45-.56.66l-.7.77h0c-1.55,1.65-3.66,3.42-5.74,3.59s-4.77-1.33-6.55-3.62a9.68,9.68,0,0,1-1.86-4l1.34,0a.55.55,0,0,0,.51-.55.53.53,0,0,0-.55-.5l-1.45,0a8.82,8.82,0,0,1,.46-3.59l.15-.29c.13.32.21.54.23.57a.51.51,0,0,0,.5.33.33.33,0,0,0,.17,0,.51.51,0,0,0,.3-.68l-.42-1.07a3.43,3.43,0,0,1,2.85-.39c2,.51,4,2.3,3.85,4.32a.51.51,0,0,0,.57.55c1.23-.11,7.39-.82,7.86-3.21a.53.53,0,0,0-.41-.62.53.53,0,0,0-.62.41c-.07.36-.46.68-1,1a1.89,1.89,0,0,1-1.26,0c-.58-.2-1.2-1.33-1.33-1.59a63.43,63.43,0,0,1-3.54-8.69,51.09,51.09,0,0,1-1.75-7.07l2.41-.92-.37-1-2.21.84a37.76,37.76,0,0,1-.38-3.88l3.68,0h0a.52.52,0,0,0,0-1l-3.72,0a26.48,26.48,0,0,1,1.33-9c1.9-5.46,5.81-9.71,11.65-12.66l2.8,3.69a.51.51,0,0,0,.44.2.53.53,0,0,0,.29-.1.53.53,0,0,0,.1-.74l-2.66-3.51c.66-.31,1.35-.61,2.07-.89a26.08,26.08,0,0,1,4.91-1.37l.1,2.64a.52.52,0,0,0,.54.5.53.53,0,0,0,.51-.54l-.11-2.76a24.62,24.62,0,0,1,14.22,2.39l-.65,1.3a.52.52,0,0,0,.24.7.43.43,0,0,0,.25.05.5.5,0,0,0,.45-.28l.64-1.29a32.71,32.71,0,0,1,12,11.69c4.35,7,4.77,14.05,4.37,22.4l0,.09a.54.54,0,0,0,0,.45c-.05.74-.1,1.49-.19,2.24-1.14,9.88-6.57,19.39-14.28,27.09.59-.11,1.18-.21,1.76-.33,4.59-4.83,7.69-10.78,11-16.24a29.65,29.65,0,0,0,13.82-7l3.5,1.72a.57.57,0,0,0,.25.06.55.55,0,0,0,.45-.3.52.52,0,0,0-.24-.7L720,388.21a22,22,0,0,0,1.89-2.14l4.31.49h.08a.52.52,0,0,0,0-1Zm-7.28,2.22-1.06-.53a.54.54,0,0,0-.7.24.52.52,0,0,0,.24.7l.7.35a28.65,28.65,0,0,1-10,5.64c-.23,0-1.15.07-1.5-.31a1.63,1.63,0,0,1-.24-1.24,41.43,41.43,0,0,0,1.41-7,4.93,4.93,0,0,0,0-.54l0-.16a17.09,17.09,0,0,1,.91-3.48c1.2-2.31,3.45-6.23,5.77-8.06a7.24,7.24,0,0,1,4.17-1.55l-.55,1.69a.53.53,0,0,0,.34.67.55.55,0,0,0,.18,0,.5.5,0,0,0,.48-.36l.63-1.94a5.08,5.08,0,0,1,1.31.37c1.77.81,2.74,2.62,2.84,5.24a12.19,12.19,0,0,1-2.64,7.46l-2.15-.24a.51.51,0,0,0-.58.46.52.52,0,0,0,.46.58l1.52.17A21.56,21.56,0,0,1,719.06,387.74Z" transform="translate(-644.5 -338.37)"/><path d="M690.93,376.29a.6.6,0,0,0-.41-.09c-10.15,2-14.27,2.67-14.31,2.68a.52.52,0,0,0-.43.53,10.46,10.46,0,0,0,.58,2.88.52.52,0,0,0,.12.31A8.14,8.14,0,0,0,685,388h.09c7.15-1.39,6-11.18,6-11.28A.54.54,0,0,0,690.93,376.29Zm-14,5.31Zm8,5.3c-.29,0-.56,0-.82,0l-.44,0-.32,0a3.06,3.06,0,0,1-.4-.07l-.31,0-.35-.09-.3-.07-.33-.12-.27-.09-.3-.13-.25-.12c-.1,0-.19-.1-.29-.15l-.22-.12-.28-.19a1.88,1.88,0,0,0-.18-.12l-.28-.22-.14-.12a3,3,0,0,1-.26-.24l-.12-.11-.25-.28-.09-.1-.24-.3-.06-.09c-.08-.1-.15-.21-.22-.31l-.06-.08-.2-.34,0-.07a2.79,2.79,0,0,1-.18-.34l0-.06c-.06-.11-.1-.22-.15-.33l0-.07.18-.13h0l.16-.08.11-.06.16-.07.18-.07.16-.05.24-.07.18-.05.29-.05.2,0,.34,0h.85a5.86,5.86,0,0,1,.69.06c1.76.24,3.39,1.95,4.15,3.44a3.16,3.16,0,0,1,.44,1.39A5.28,5.28,0,0,1,684.94,386.9Z" transform="translate(-644.5 -338.37)"/><path d="M694.72,371.22a.52.52,0,0,0,.41-.62,4.17,4.17,0,0,0-.91-1.9,1.84,1.84,0,0,0-1.68-.67c-1.11.24-1.71,1.72-1.36,3.39a.54.54,0,0,0,.53.42l.09,0a.52.52,0,0,0,.4-.62c-.23-1.11.1-2,.55-2.14a.83.83,0,0,1,.69.35,3,3,0,0,1,.66,1.4A.53.53,0,0,0,694.72,371.22Z" transform="translate(-644.5 -338.37)"/><path d="M672,373.08a1.87,1.87,0,0,0-1.8-.59c-1.14.31-1.67,1.9-1.2,3.64a.51.51,0,0,0,.52.38h.12a.53.53,0,0,0,.37-.65c-.32-1.18,0-2.22.46-2.35a.91.91,0,0,1,.8.33,3.36,3.36,0,0,1,.8,1.46.52.52,0,1,0,1-.27A4.31,4.31,0,0,0,672,373.08Z" transform="translate(-644.5 -338.37)"/><path class="cls-1" d="M696.74,407.71l3-3.73-1.08-.89a23.33,23.33,0,0,0-3.24.75c-.11.18-.59,2.08-.59,2.08Z" transform="translate(-644.5 -338.37)"/><path class="cls-3" d="M667,408.79s6.89,1.18,12,1.46a128.62,128.62,0,0,0,13.95-.52,27.3,27.3,0,0,0,4.87-1c1.09-.52,2.52-1.16,2.52-1.16a19.12,19.12,0,0,1-.21,2.41c-.16.72-1.2,5.87-1.2,5.87s-6,2.41-18.44,2.17-15.27-2.11-15.27-2.11l.08-7.2.19-.36Z" transform="translate(-644.5 -338.37)"/><path class="cls-4" d="M668.39,416.9l3.1,11.28A20.28,20.28,0,0,0,676,430.1a26.88,26.88,0,0,0,9.84.24,30.93,30.93,0,0,0,7.2-1.81l4-11.75s-9.16,1-14.7,1.38A50.65,50.65,0,0,1,668.39,416.9Z" transform="translate(-644.5 -338.37)"/><path d="M700.85,406.75c-.08-.63-.75-1.11-1.78-1.24a.43.43,0,0,0-.47.35.39.39,0,0,0,.35.43c.65.08,1.1.34,1.09.61,0,.43-1.19,1.53-5.49,2.21l-1.39.19c-1.08.12-2.3.22-3.7.28-3.21.15-6,.19-8.44.18h-1.27l-1.18,0c-2.89-.08-5.18-.26-7-.48L669.8,409a17.71,17.71,0,0,1-3.93-1,.32.32,0,0,1-.08-.31c.06-.16.45-.72,3.06-1.09l1.08-.16a.39.39,0,0,0,.31-.21c0-.12,0-.25,0-.39a.45.45,0,0,0-.41-.17l-1.09.16c-2.25.32-3.47.85-3.73,1.63a1,1,0,0,0,0,.56c0,.6.07,6.08.09,7.57a.37.37,0,0,0,.13.28,7.52,7.52,0,0,0,2.64,1.13c.52,1.84,2.6,9.2,3,10.9.37,1.37,5.08,3.28,11.61,3.16.35,0,.7,0,1.06-.05,4.14-.24,9.38-1.38,10-2.48a.69.69,0,0,0,.09-.38c.84-1.67,3.15-9.41,3.71-11.31a5.4,5.4,0,0,0,2-.94.36.36,0,0,0,.13-.21c.06-.3,1.4-7.26,1.38-8.75A.29.29,0,0,0,700.85,406.75Zm-8,21.19a.4.4,0,0,0,0,.28c-.59.64-5.62,2-10.35,2.08-6.59.12-10.6-1.87-10.79-2.58-.43-1.58-2.26-8.09-2.92-10.46,3.16.75,8.9,1.45,19.07,1a62.34,62.34,0,0,0,8.62-1.17C695.35,420.85,693.46,427,692.87,427.94Zm5.9-12.5a4.9,4.9,0,0,1-1.4.62.51.51,0,0,0-.15-.07.42.42,0,0,0-.51.26,57.44,57.44,0,0,1-8.91,1.26c-10.67.44-16.37-.37-19.29-1.13a.4.4,0,0,0-.5-.26.36.36,0,0,0-.15.08,9.11,9.11,0,0,1-2-.79c0-1.38-.06-4.9-.08-6.56a22.48,22.48,0,0,0,4.66,1h0a105.9,105.9,0,0,0,19,.47l.83,0c1.66-.1,3.09-.25,4.32-.44h0a13.2,13.2,0,0,0,5.36-1.7C699.72,410.44,698.92,414.63,698.77,415.44Z" transform="translate(-644.5 -338.37)"/><path d="M667.82,406.56l1.12,2.58a11.67,11.67,0,0,1-2.85-.68c-.89-.45-.78-.94-.21-1.53S667.82,406.56,667.82,406.56Z" transform="translate(-644.5 -338.37)"/><path d="M696.75,409l2.75-3.08s1.15.32.93,1S697.59,409,696.75,409Z" transform="translate(-644.5 -338.37)"/><path class="cls-3" d="M667.24,416s1,.33,1.52.44.43-.51.43-.51l-1-.7Z" transform="translate(-644.5 -338.37)"/><path class="cls-3" d="M696,416.42s1.35-.33,1.64-.43,0-.49,0-.49a9.37,9.37,0,0,0-1.22-.37c-.1,0-.82.67-.82.67Z" transform="translate(-644.5 -338.37)"/><polygon class="cls-1" points="24.57 70.36 22.53 65.88 25.72 65.77 26.76 68.01 24.57 70.36"/><path class="cls-5" d="M672.56,403.11a16.92,16.92,0,0,0,6.31,1.39c5.22.27,13.82-2.07,17.54-4.71s10-11.13,10-11.13c-2.14,11-10.32,20.16-10.32,20.16a76.74,76.74,0,0,1-20.53.76c-7.32-.62-6.6-.64-6.68-.84l-4.09-9.22.16-1.16a6.86,6.86,0,0,1,2.82,1.92A16.52,16.52,0,0,0,672.56,403.11Z" transform="translate(-644.5 -338.37)"/><path class="cls-5" d="M665.88,398a.77.77,0,0,0,0-1.53.77.77,0,0,0,0,1.53Z" transform="translate(-644.5 -338.37)"/><path class="cls-5" d="M667.17,400.71a.77.77,0,0,0,0-1.53.77.77,0,0,0,0,1.53Z" transform="translate(-644.5 -338.37)"/><path class="cls-5" d="M700.4,389.68h.16c1,0,1-1.57,0-1.53h-.16c-1,0-1,1.57,0,1.53Z" transform="translate(-644.5 -338.37)"/><path class="cls-5" d="M703.37,390.55a.77.77,0,0,0,0-1.53.77.77,0,0,0,0,1.53Z" transform="translate(-644.5 -338.37)"/><path class="cls-5" d="M700.81,392.85l.16.16c.72.68,1.8-.41,1.08-1.08l-.16-.16c-.72-.68-1.8.4-1.08,1.08Z" transform="translate(-644.5 -338.37)"/><path class="cls-5" d="M668.35,397.4a.77.77,0,0,0,0-1.53.77.77,0,0,0,0,1.53Z" transform="translate(-644.5 -338.37)"/><path class="cls-5" d="M669.27,400.14a.77.77,0,0,0,0-1.53.77.77,0,0,0,0,1.53Z" transform="translate(-644.5 -338.37)"/><path class="cls-5" d="M669.35,402.27a.77.77,0,0,0,0-1.54.77.77,0,0,0,0,1.54Z" transform="translate(-644.5 -338.37)"/><path class="cls-5" d="M700.48,396.21a.77.77,0,0,0,0-1.53.77.77,0,0,0,0,1.53Z" transform="translate(-644.5 -338.37)"/><path class="cls-5" d="M703.44,391.49a1.52,1.52,0,0,0,0-3,1.52,1.52,0,0,0,0,3Z" transform="translate(-644.5 -338.37)"/><path class="cls-5" d="M669.44,400.87a1.52,1.52,0,0,0,0-3,1.52,1.52,0,0,0,0,3Z" transform="translate(-644.5 -338.37)"/><path class="cls-5" d="M671.63,403.75a1.52,1.52,0,0,0,0-3,1.52,1.52,0,0,0,0,3Z" transform="translate(-644.5 -338.37)"/><path class="cls-5" d="M697.92,396.32a1.69,1.69,0,0,0,.39.82s.15.23.22.25-.16-.19-.18-.27a1.54,1.54,0,0,0,1.87,1.06,1.56,1.56,0,0,0,1.07-1.87,1.85,1.85,0,0,0-.39-.81s-.16-.24-.22-.26.16.19.17.28a1.53,1.53,0,0,0-1.87-1.07,1.55,1.55,0,0,0-1.06,1.87Z" transform="translate(-644.5 -338.37)"/><path class="cls-6" d="M709.33,394.37" transform="translate(-644.5 -338.37)"/><path class="cls-6" d="M724.54,379.87" transform="translate(-644.5 -338.37)"/><path class="cls-7" d="M671,425.25a7.92,7.92,0,0,1,7.23-4.54c5.43-.1,13.73,5.19,14.59,7.51l3.63-11.1a56.86,56.86,0,0,1-14.67,1.3c-8-.37-13-1.16-13-1.16Z" transform="translate(-644.5 -338.37)"/><path class="cls-8" d="M722.08,380.22a.73.73,0,0,1-.63.83h-9.68a.79.79,0,0,1-.69-.83l-.67-16.77a.73.73,0,0,1,.63-.84h9.67a.8.8,0,0,1,.7.84Z" transform="translate(-644.5 -338.37)"/><line class="cls-9" x1="65.99" y1="27.38" x2="77" y2="27.37"/><line class="cls-10" x1="66.5" y1="39.91" x2="77.5" y2="39.88"/><path class="cls-8" d="M717.35,365.76A1.35,1.35,0,1,1,716,364.4,1.35,1.35,0,0,1,717.35,365.76Z" transform="translate(-644.5 -338.37)"/><path class="cls-11" d="M722.56,372s-6.11,0-5.47,4.09-.13,7.49,4.6,9.09c0,0,2.75-1.66,3.09-6A9.15,9.15,0,0,0,722.56,372Z" transform="translate(-644.5 -338.37)"/><line class="cls-11" x1="77.67" y1="35.68" x2="78.46" y2="31.65"/></svg>