<svg xmlns="http://www.w3.org/2000/svg" xmlns:xlink="http://www.w3.org/1999/xlink" viewBox="0 0 179.75 179.88"><defs><style>.cls-1{isolation:isolate;}.cls-10,.cls-11,.cls-12,.cls-13,.cls-14,.cls-15,.cls-16,.cls-17,.cls-18,.cls-19,.cls-2,.cls-20,.cls-21,.cls-22,.cls-23,.cls-3,.cls-4,.cls-5,.cls-6,.cls-7,.cls-8,.cls-9{opacity:0.9;mix-blend-mode:multiply;}.cls-2{fill:url(#linear-gradient);}.cls-3{fill:url(#linear-gradient-2);}.cls-4{fill:url(#linear-gradient-3);}.cls-5{fill:url(#linear-gradient-4);}.cls-6{fill:url(#linear-gradient-5);}.cls-7{fill:url(#linear-gradient-6);}.cls-8{fill:url(#linear-gradient-7);}.cls-9{fill:url(#linear-gradient-8);}.cls-10{fill:url(#linear-gradient-9);}.cls-11{fill:url(#linear-gradient-10);}.cls-12{fill:url(#linear-gradient-11);}.cls-13{fill:url(#linear-gradient-12);}.cls-14{fill:url(#linear-gradient-13);}.cls-15{fill:url(#linear-gradient-14);}.cls-16{fill:url(#linear-gradient-15);}.cls-17{fill:url(#linear-gradient-16);}.cls-18{fill:url(#linear-gradient-17);}.cls-19{fill:url(#linear-gradient-18);}.cls-20{fill:url(#linear-gradient-19);}.cls-21{fill:url(#linear-gradient-20);}.cls-22{fill:url(#linear-gradient-21);}.cls-23{fill:url(#linear-gradient-22);}</style><linearGradient id="linear-gradient" x1="688.35" y1="384.47" x2="688.35" y2="294.72" gradientUnits="userSpaceOnUse"><stop offset="0" stop-color="#00a19a"/><stop offset="0.11" stop-color="#04a198"/><stop offset="0.22" stop-color="#10a090"/><stop offset="0.32" stop-color="#249f84"/><stop offset="0.43" stop-color="#3f9d72"/><stop offset="0.54" stop-color="#639b5b"/><stop offset="0.64" stop-color="#8f9840"/><stop offset="0.75" stop-color="#c2951f"/><stop offset="0.82" stop-color="#ea9306"/><stop offset="1" stop-color="#f39200"/></linearGradient><linearGradient id="linear-gradient-2" x1="759.31" y1="432.36" x2="759.31" y2="430.71" xlink:href="#linear-gradient"/><linearGradient id="linear-gradient-3" x1="726.06" y1="329.26" x2="726.06" y2="307.4" xlink:href="#linear-gradient"/><linearGradient id="linear-gradient-4" x1="752.71" y1="444.63" x2="752.71" y2="439.73" xlink:href="#linear-gradient"/><linearGradient id="linear-gradient-5" x1="754.49" y1="421.85" x2="754.49" y2="418" xlink:href="#linear-gradient"/><linearGradient id="linear-gradient-6" x1="748.64" y1="400.96" x2="748.64" y2="348.32" xlink:href="#linear-gradient"/><linearGradient id="linear-gradient-7" x1="680.67" y1="330.37" x2="680.67" y2="301.24" xlink:href="#linear-gradient"/><linearGradient id="linear-gradient-8" x1="710.95" y1="331.09" x2="710.95" y2="331.07" xlink:href="#linear-gradient"/><linearGradient id="linear-gradient-9" x1="722.85" y1="345.43" x2="722.85" y2="345.39" xlink:href="#linear-gradient"/><linearGradient id="linear-gradient-10" x1="753.95" y1="411.03" x2="753.95" y2="401.44" xlink:href="#linear-gradient"/><linearGradient id="linear-gradient-11" x1="675.94" y1="391.31" x2="675.94" y2="376.92" xlink:href="#linear-gradient"/><linearGradient id="linear-gradient-12" x1="715.62" y1="474.6" x2="715.62" y2="453.31" xlink:href="#linear-gradient"/><linearGradient id="linear-gradient-13" x1="730.11" y1="464.73" x2="730.11" y2="453.24" xlink:href="#linear-gradient"/><linearGradient id="linear-gradient-14" x1="680.93" y1="417.53" x2="680.93" y2="394.55" xlink:href="#linear-gradient"/><linearGradient id="linear-gradient-15" x1="661.4" y1="396.91" x2="661.4" y2="376.24" xlink:href="#linear-gradient"/><linearGradient id="linear-gradient-16" x1="644.88" y1="454.12" x2="644.88" y2="401.59" xlink:href="#linear-gradient"/><linearGradient id="linear-gradient-17" x1="703.43" y1="461.36" x2="703.43" y2="390.53" xlink:href="#linear-gradient"/><linearGradient id="linear-gradient-18" x1="709.9" y1="435.36" x2="709.9" y2="372.56" xlink:href="#linear-gradient"/><linearGradient id="linear-gradient-19" x1="745.56" y1="463.9" x2="745.56" y2="447.31" xlink:href="#linear-gradient"/><linearGradient id="linear-gradient-20" x1="644.87" y1="321.71" x2="644.87" y2="305.69" xlink:href="#linear-gradient"/><linearGradient id="linear-gradient-21" x1="653.92" y1="403.32" x2="653.92" y2="324.34" xlink:href="#linear-gradient"/><linearGradient id="linear-gradient-22" x1="612.05" y1="348.74" x2="612.05" y2="329.14" xlink:href="#linear-gradient"/></defs><title>logo</title><g class="cls-1"><g id="Layer_1" data-name="Layer 1"><path class="cls-2" d="M647.32,340s-5.64,3.32-6.59,12.47,2.08,14,6.85,13.71c5.09-.26,8.09-6.28,8.88-10.35h0a2.12,2.12,0,0,1,.63-1.1v0a16.6,16.6,0,0,0,2.58-3.62h0s.21-.34.33-.31.06.07.07.14c0,.23,0,.46,0,.67.24,7.23,2.65,9.09,6.55,8.46,3-.48,4.64-3.88,5.27-5.47h0s.14-.32.27-.31.28.45.28.45c.51,1.42,1.82,3.74,4.76,1.9,1.2-.92,1.7-1.75,2.22-4.06h0s.54-1.94,1.08-4.72c1-5.32,2.22-12.75,4-11,1.34,1.48-.72,12.08-1.13,17.95-.06.81.43.85,1.72.53.22,0,1.62-.33,1.78-.75.76-2.05,1.11-6.16,1.46-8.65.7-9.35,2.7-10.79,5-11,2,0,1.6,8.33,1.15,13.36-.06.43-.15,1.19-.19,1.95a1.48,1.48,0,0,0,0,.21c-.1.94-.16,1.55-.16,1.6,0,.27-.58,1.41,1.18,1.36a4.19,4.19,0,0,0,1-.16,3,3,0,0,0,2-.06,5.11,5.11,0,0,0,2.56-2.88h0s.24-.52.42-.57.49.3.76.46h0a3.86,3.86,0,0,0,4.17-.17,6,6,0,0,0,2-3.06h0a38.23,38.23,0,0,0,1.35-5.78c.65-4.76,1.07-8.18,1.24-9.68a1.75,1.75,0,0,0,.06-.46h0a.33.33,0,0,1,.13-.11c.3-.15.32-.09,1.09.18l.09,0c1,.51,2.34,1.47,2,3-.53,2.35-2.37,13.37,3.27,13.78a4.35,4.35,0,0,0,4.28-2.56h0a.32.32,0,0,0,0-.06c0-.1.11-.2.16-.31s.22-.34.33-.33.13.06.2.15.21.37.32.55l0,0a4.6,4.6,0,0,0,5.1,1.95c3.72-.75,4.95-3.94,5.35-5.82.26,8.72-.21,22.25-4.67,31.39-6.34,13-31.85,13.12-25.71-8.23,2.54-8.84,12.31-5.75,9.77-.88a3.29,3.29,0,0,1-2.7,1.94,3.68,3.68,0,0,1-1.73-.33,7.42,7.42,0,0,1-2.67-2.09c-.49-.48-.51-.53-.74-.49-.64.2-1.21,2-1,2.35a3.15,3.15,0,0,0,.86.76c.22.15.41.27.6.38h0a5.67,5.67,0,0,0,2,.81c3.18.8,7.72-1,6.66-6.05-1-4.68-11.6-5.57-14.23,6-2.32,10.17,6,18.29,15.73,17.3,23.18-2.35,20.91-28.06,20.19-57.83a11.59,11.59,0,0,0,0-1.27c-.16-2.45-1-6.24-5-5.57-3.39.57-3.83,7.17.19,9.17a6.3,6.3,0,0,0,1,.37c.23,0,.12-1.08.12-1.26,0-.36-.07-.22-.91-.75-2.61-1.72-2.45-4.84-.74-5,2.4-.56,2.32,6.39,2.37,6.86,0,2.19.07,4.56.07,4.94-.17,8.93-2.37,10.44-4.51,10.66-5.79,1.15-2.56-16.43-2.57-17.18-.09-.33,0-.86-.77-.73a4.78,4.78,0,0,0-1.58.44,1.8,1.8,0,0,0-.58.92,72.82,72.82,0,0,0-1.16,11.21h0s.07,7.05-2.15,6.86c-3.49-.3-2.49-10-1.75-12.47s-2.13-3.5-4.08-4.57-1.7-1.13-1.43-2.27c.93-3.27,1.09-8-2-7.37-3.82.78-2.47,5.4-2,6.62.79,2.14,1.92,2.19,1.55,3.79,0,0,0,.1,0,.17s0,0,0,0-.17,1.31-.17,1.31c-.2,1.43-.5,3.66-.82,5.94-.28,2-.62,4.13-.91,5.72-.68,3.63-1.78,6.4-3.36,5.68-1.76-1.24-.75-6.74.53-22.43a123.27,123.27,0,0,1,3-16.69c.11-.3.2-.61.31-.9,1.88-7.07,6.75-12.82,10.86-11.74,3.93,1.61,4.26-2.56,2.18-2.33,0,0-11.42,0-16.17,14.38-3.15,9.53-4.16,23.58-4.48,31.88-.1,1.42-.16,2.71-.16,3.54,0,4.53-1.36,7.2-2.39,6.88-.55.07-.54-.75-.5-1.18h0c1.24-15.85.23-18.94-3.7-18.77-3.33.44-5.05,3.75-5.7,5.39h0l-.1.27a.61.61,0,0,1-.11.16c-.14.05-.21-.24-.21-.24l-.1-.34h0v0h0a3.44,3.44,0,0,0-4.43-2.68s-1.81.36-2.54,2.94a26.64,26.64,0,0,0-.94,4.72h0c-.49,3.21-1,7.3-1.53,9.92a2.24,2.24,0,0,0-.11.54c-.63,2.05-1.48,3.36-2.59,2.59-1.33-1.48-.18-12.82.27-18.68.06-.81-1.36-.25-2.67-.1l-.2,0c-.88.13-1,.48-.94.63,0,.67-.09,4.66-.11,6.07s-.14,2.59-.15,3.33c-.44,9-2.79,10.9-5,10.59-1.93-.16-3.09-2.42-2.46-9.36.12-1.32.47-3.93.77-6.12a27.8,27.8,0,0,0,.59-4.06c-.09-.35-.53-.47-1.35-.33a4.77,4.77,0,0,0-1.62.46,2.14,2.14,0,0,0-.6,1,34.58,34.58,0,0,0-1.64,8.08,16.08,16.08,0,0,1-2.85,5.3c-.17.18-.38.35-.5.28s-.09-.28-.09-.49a.91.91,0,0,1,0-.17v-.07a.24.24,0,0,1,0-.07h0C657,346,655,336,647.32,340Zm63.23-18.69c1.86-.63.73,5.24.16,4.91C710.71,326.25,708.44,322.05,710.55,321.34Zm-60.82,19.91c2.41-1.16,5.13,1.18,5.51,6.21.64,5.67.34,5.63-1,6.15-1.51.63-5.83,1-6.85-3.21C645.79,342.77,649.73,341.25,649.73,341.25Zm.76,22.09c-2,.68-3.9-.16-5.47-3.6-1.17-2.84-.93-6.94-.7-9,0-.12.06-.27.15-.28l0,0c.41,6.32,5.77,7.31,10,5.69h0s.3-.07.42.06.07.37.06.46C654.26,359.62,652.28,362.74,650.49,363.34Z" transform="translate(-594.22 -294.72)"/><path class="cls-3" d="M770.4,431.16l-22.16-.45a.62.62,0,0,0-.61.59.6.6,0,0,0,.59.62l22.15.44h0a.61.61,0,0,0,.6-.59A.6.6,0,0,0,770.4,431.16Z" transform="translate(-594.22 -294.72)"/><path class="cls-4" d="M708,313.49c-.07.07-.12.06-.2.32s-.59,2.52.18,2.16c26.52-12.14,32.5-4,34.42.68,3.47,8.42-4.56,10.77-6,11-.21.05-.13.4-.07.89a3.49,3.49,0,0,0,.1.7c6.5-.86,10.27-7.07,7-14-7.5-15.21-30.2-3.89-34.32-2.16C709.05,313.08,708,313.42,708,313.49Z" transform="translate(-594.22 -294.72)"/><path class="cls-5" d="M758.58,443.45l-11.37-3.69a.61.61,0,0,0-.76.4.59.59,0,0,0,.38.75l11.38,3.69.18,0a.61.61,0,0,0,.58-.42A.6.6,0,0,0,758.58,443.45Z" transform="translate(-594.22 -294.72)"/><path class="cls-6" d="M759.81,418l-10.93,2.64a.61.61,0,0,0-.44.73.59.59,0,0,0,.58.46.39.39,0,0,0,.15,0l10.92-2.64a.6.6,0,0,0-.28-1.17Z" transform="translate(-594.22 -294.72)"/><path class="cls-7" d="M765.27,362.63c-.54-.53-1.09-1.05-1.66-1.55s1.68-2.15,2.28-2.62a20,20,0,0,1,6.41-3.19c.43-.13,2.09-.64,1.56-1.36-2.81-3.81-9.32-5.21-13.71-5.53a23.92,23.92,0,0,0-14.24,3.67c-1.81,1.11-5.68,4-4.92,6.65a.9.9,0,0,0,.25.4,28.84,28.84,0,0,0,.38,5.9,30.52,30.52,0,0,1,.44,7.83,14.35,14.35,0,0,1-4.25-1.11c-1-.42-4.28,1.16-2.9,1.75,3.3,1.42,7.46,2.21,10.76.36,2.85-1.6,4.16-4.39,4.91-7.57,0,.12.09.24.12.34a97.51,97.51,0,0,1,3.53,12.51,18.84,18.84,0,0,1,.75,6.3c-.43,4.37-2.13,8.75-5.68,11.22-5,3.44-12.46,3.69-18,2.13a28.19,28.19,0,0,1-6.38-2.66c-.49-.29-2.12.17-1.49,1.16a2,2,0,0,0,.49.43,1.25,1.25,0,0,0,.82.22c.47.22.94.44,1.42.64a29.94,29.94,0,0,0,5.68,1.71A28.92,28.92,0,0,0,749,398.85c6.09-2.42,10.73-10.17,9.54-17.21-.27-1.63-.62-3.25-1-4.87a2.8,2.8,0,0,0,1.06-.44c1.66-1.53,6.18.77,7.88,1.52a30.84,30.84,0,0,1,3.86,2c.74.46,3.7,0,3.61-1.16C773.52,372.41,769.61,367,765.27,362.63Zm-8.1,12.52c-.49-1.89-1-3.77-1.57-5.62-.45-1.55-1.21-5.39-2.69-7.25-1-1.68-3.39-2.65-5-3.32-1-.41-3.49-.4-3.28-1.9a6.13,6.13,0,0,1,2-3.06c3.11-3.14,7.67-4.19,12-3.88,3.52.26,8.6,1.67,11.22,4.46-3.95,1.43-7.87,3.65-10.17,7.15a.31.31,0,0,0,.1.37c4.38,3.59,8.38,8.59,9.91,14.17C765.62,374.42,760.92,373.26,757.17,375.15Z" transform="translate(-594.22 -294.72)"/><path class="cls-8" d="M701.63,318.61a.91.91,0,0,0,.28-.29,6.2,6.2,0,0,0,.08-1.53c.14-1.5-1.26-.17-1.75.15,0,0-16.21,12.33-29,9.79-5.81-1.31-8.33-6-7.93-11s3.55-13.41,17-12.15c10.61,2.32,6.24,14.76-.53,13.48-3-.76-3.13-3.73-1.47-4.2,1.47-.64.47-2.79-1.12-2.39-3.36.84-3.56,10,5.81,8,7.92-1.81,8.37-16.47-4.88-17.15-2-.33-15.78-.11-18.66,15.18C658.38,331.46,677.38,337.35,701.63,318.61Z" transform="translate(-594.22 -294.72)"/><path class="cls-9" d="M711,331.09v0h0Z" transform="translate(-594.22 -294.72)"/><path class="cls-10" d="M722.86,345.43l0,0a.1.1,0,0,1,0,0Z" transform="translate(-594.22 -294.72)"/><path class="cls-11" d="M764.69,401.82a.6.6,0,0,0-.79-.33l-20.35,8.37a.61.61,0,0,0,.23,1.17.64.64,0,0,0,.23,0l20.35-8.38A.6.6,0,0,0,764.69,401.82Z" transform="translate(-594.22 -294.72)"/><path class="cls-12" d="M668.74,388.79a5.59,5.59,0,0,0,.6,1.5,2.18,2.18,0,0,0,1,.91,1.47,1.47,0,0,0,.56.11,2.25,2.25,0,0,0,.89-.21,2.6,2.6,0,0,0,1.19-1.18,6.39,6.39,0,0,0,.61-1.6,2.4,2.4,0,0,0,.9.05,2.62,2.62,0,0,0,.58-.19,2.4,2.4,0,0,0,.89-.64,2.93,2.93,0,0,0,.52-.89,4.25,4.25,0,0,0,.22-.92c0-.28.06-.57.09-.89,0,0,0,0,0-.07v-.23a.71.71,0,0,0,0-.15v-4c.27,0,.55,0,.82,0l1-.07.14,0c0,.15,0,.28,0,.4s0,.33.05.54l.07.49c0,.19.05.43.07.71s.06.61.11.9l.12.8a5.39,5.39,0,0,0,.34,1.32l0,.05a3.39,3.39,0,0,0,.32.56,1.75,1.75,0,0,0,.48.46,1.49,1.49,0,0,0,.68.23h.14a1.59,1.59,0,0,0,.67-.16,2.2,2.2,0,0,0,1-1,5,5,0,0,0,.49-1.44,10.58,10.58,0,0,0,.17-1.62c0-.55,0-1.07,0-1.57v0a.58.58,0,0,0-.19-.46.69.69,0,0,0-.46-.18.55.55,0,0,0-.42.19.65.65,0,0,0-.17.46v0c0,.42,0,.87,0,1.35a8.42,8.42,0,0,1-.11,1.36,4.08,4.08,0,0,1-.31,1.12,1.1,1.1,0,0,1-.56.6.39.39,0,0,1-.19.05h0a.21.21,0,0,1-.13-.05.43.43,0,0,1-.17-.16,2.16,2.16,0,0,1-.17-.31l-.14-.45c0-.16-.08-.37-.12-.61s-.08-.48-.11-.75-.07-.56-.1-.86l-.08-.68c0-.19,0-.37,0-.54s-.06-.46-.08-.67,0-.48-.06-.82v-.05a.7.7,0,0,0-.2-.4.62.62,0,0,0-.47-.18l-.79.08-1,.08a7.06,7.06,0,0,1-.79,0,1.8,1.8,0,0,1,0-.22,3.48,3.48,0,0,0,0-.36,2.61,2.61,0,0,0-.18-.66,1.78,1.78,0,0,0-.52-.71,1.37,1.37,0,0,0-.43-.23,1.19,1.19,0,0,0-.46-.05h-.1a2,2,0,0,0-.37.12,1.34,1.34,0,0,0-.68.67l-.08.18h0a1.55,1.55,0,0,0,0,.93,2,2,0,0,0,.75,1,2.63,2.63,0,0,0,1,.42l0,.51v3.11s0,.05,0,.08a1.48,1.48,0,0,1,0,.21v.36c0,.06,0,.12,0,.19a6.16,6.16,0,0,1,0,.75,3.88,3.88,0,0,1-.18.71,1.63,1.63,0,0,1-.29.49,1.34,1.34,0,0,1-.74.43.92.92,0,0,1-.47,0c0-.41.05-.83.05-1.26s0-.95-.08-1.41a11.84,11.84,0,0,0-.2-1.28,6.42,6.42,0,0,0-.34-1.07,2.81,2.81,0,0,0-.55-.9,2.41,2.41,0,0,0-.69-.53,1.83,1.83,0,0,0-.84-.21h-.08a2.88,2.88,0,0,0-.92.2,2.43,2.43,0,0,0-1.25,1.31,6.8,6.8,0,0,0-.53,2,11.24,11.24,0,0,0,0,1.38,17,17,0,0,0,.1,1.71A12.81,12.81,0,0,0,668.74,388.79Zm2.39-7.29v.19a.89.89,0,0,1,.35.08,1.35,1.35,0,0,1,.61.76,7.1,7.1,0,0,1,.42,1.6,8.9,8.9,0,0,1,.1,1.05.53.53,0,0,0-.43-.1.67.67,0,0,0-.41.25.56.56,0,0,0-.1.47,3.86,3.86,0,0,0,.29,1,2.9,2.9,0,0,0,.51.8,7.57,7.57,0,0,1-.45,1.46,1.64,1.64,0,0,1-.74.87.92.92,0,0,1-.3.07.47.47,0,0,1-.3-.1,1.79,1.79,0,0,1-.49-.73,6.85,6.85,0,0,1-.35-1.24,14.23,14.23,0,0,1-.2-1.46c0-.49,0-.95,0-1.38a7.34,7.34,0,0,1,0-1,5.78,5.78,0,0,1,.34-1.52,1.33,1.33,0,0,1,.69-.8,1.23,1.23,0,0,1,.44-.09l0-.19Zm4.1-2.7a.57.57,0,0,1-.23-.32.72.72,0,0,1,0-.13l0-.07a.12.12,0,0,1,.06-.08h.11a.79.79,0,0,1,.14.21,1.09,1.09,0,0,1,.08.31l0,.2A1.18,1.18,0,0,1,675.23,378.8Z" transform="translate(-594.22 -294.72)"/><path class="cls-13" d="M717.88,453.32a.61.61,0,0,0-.72.46l-4.27,20.09a.61.61,0,0,0,.46.72h.13a.6.6,0,0,0,.59-.47L718.34,454A.61.61,0,0,0,717.88,453.32Z" transform="translate(-594.22 -294.72)"/><path class="cls-14" d="M729.2,453.24a.61.61,0,0,0-.5.7l1.63,10.28a.6.6,0,0,0,.59.51h.1a.59.59,0,0,0,.5-.69l-1.63-10.28A.61.61,0,0,0,729.2,453.24Z" transform="translate(-594.22 -294.72)"/><path class="cls-15" d="M673.88,411.4c.68,4.52,3.69,6.13,6.28,6.13h.35c4-.2,6.77-4.58,7.66-8.55a.35.35,0,0,0-.09-.31.35.35,0,0,0-.31-.08l-.8.19-.35.07a.32.32,0,0,0-.25.24c-.57,2.48-2.2,5-3.57,5.41a2.49,2.49,0,0,1-1.68,0c-1.68-.36-2.73-1.9-3.13-4.55,11.58-8.3,8.79-13.16,8.67-13.36a4.42,4.42,0,0,0-3.92-2.06,7.65,7.65,0,0,0-4.08,1.32c-.17.12-4.15,3.05-4.82,10.4a21.49,21.49,0,0,0-.14,3.33Zm4-5.87c.27-3.82,1.35-8.44,4.95-8.76a1.56,1.56,0,0,1,.3,0c.66,0,1.06.36,1.52,1,.89,2.38-2.75,7.52-6.87,9.83C677.74,407,677.76,406.37,677.83,405.53Z" transform="translate(-594.22 -294.72)"/><path class="cls-16" d="M664.3,380.35c.37-.1.76-.22,1.16-.35s.89-.32,1.37-.53a3,3,0,0,0,1.26-1,2,2,0,0,0,.31-.71,1.21,1.21,0,0,0-.1-.77.33.33,0,0,0-.06-.1,1.28,1.28,0,0,0-1.12-.67,2.79,2.79,0,0,0-1.28.27l.08.18-.14-.15a5.65,5.65,0,0,0-1,.67,4.69,4.69,0,0,0-.92,1,5,5,0,0,0-.33.55,3.89,3.89,0,0,0-.21.51l-1.22.21-1.24.18c-.77.08-1.52.19-2.22.32a9.47,9.47,0,0,0-2.12.67,3.45,3.45,0,0,0-1.12.82,3.59,3.59,0,0,0-.7,1.19,4.06,4.06,0,0,0-.29,1.39,3.55,3.55,0,0,0,.23,1.38,3.35,3.35,0,0,0,1,1.46,2.57,2.57,0,0,0,.77.49,2.91,2.91,0,0,0,.82.21,3.66,3.66,0,0,0,1.7-.25,5.23,5.23,0,0,0,2.09-1.52.63.63,0,0,0,.15-.45.6.6,0,0,0-.23-.43.7.7,0,0,0-.45-.16.6.6,0,0,0-.42.22,5.66,5.66,0,0,1-.76.71,3.12,3.12,0,0,1-.84.45,2.37,2.37,0,0,1-1.13.17,1.44,1.44,0,0,1-.9-.39,2.15,2.15,0,0,1-.62-.95,2.9,2.9,0,0,1-.14-.91,3,3,0,0,1,.68-1.75,2,2,0,0,1,.71-.53,8,8,0,0,1,1.91-.59c.65-.11,1.34-.21,2.07-.31l1.11-.14.92-.15a16.56,16.56,0,0,0,.06,2.62c.08.92.17,1.77.27,2.54,0,.21,0,.4.07.6s0,.26,0,.38l-1.19.53a.58.58,0,0,0-.33.37.67.67,0,0,0,0,.48.61.61,0,0,0,.33.32.56.56,0,0,0,.49,0l.81-.36h0a3,3,0,0,0,0,.31c.09.75.16,1.51.21,2.24a9.61,9.61,0,0,1-.06,2,4,4,0,0,1-.61,1.63,3,3,0,0,1-1.4,1.11l-.1,0a2.52,2.52,0,0,1-1,.17,2.42,2.42,0,0,1-.9-.21,2.82,2.82,0,0,1-1.29-1.44l-.05-.11a3.09,3.09,0,0,1-.22-1.25,3.49,3.49,0,0,1,.25-1.16,3.65,3.65,0,0,1,.73-1.14,3.05,3.05,0,0,1,1-.71.57.57,0,0,0,.32-.36.67.67,0,0,0,0-.48.59.59,0,0,0-.33-.33.56.56,0,0,0-.49,0,4.61,4.61,0,0,0-1.32,1,4.47,4.47,0,0,0-1,1.57,5.43,5.43,0,0,0-.34,1.57,4.2,4.2,0,0,0,.31,1.77l.07.14a3.89,3.89,0,0,0,1.91,2.09,4.12,4.12,0,0,0,1.36.34h.19a3.68,3.68,0,0,0,1.34-.27l.15-.06a4.34,4.34,0,0,0,1.9-1.45,5,5,0,0,0,.82-2,8.94,8.94,0,0,0,.12-2.34c-.06-.82-.14-1.67-.24-2.52,0-.14,0-.28,0-.42l0-.3,1.76-.78a.61.61,0,0,0,.33-.37.65.65,0,0,0-.36-.8.6.6,0,0,0-.49,0l-1.39.62c0-.18,0-.38-.08-.57-.1-.77-.19-1.61-.26-2.49a17.49,17.49,0,0,1-.06-2.48Zm2.06-2.69a1.72,1.72,0,0,1,.62-.16h.1a.12.12,0,0,1,.08,0s0,.12-.09.25a1.88,1.88,0,0,1-.75.55c-.33.15-.65.27-1,.38l-.41.14a3.67,3.67,0,0,1,.6-.64,4.12,4.12,0,0,1,.76-.52l-.09-.17Z" transform="translate(-594.22 -294.72)"/><path class="cls-17" d="M673.05,416a.35.35,0,0,0-.09-.31.35.35,0,0,0-.31-.08l-.8.19-.35.07a.32.32,0,0,0-.25.24c-.57,2.48-2.19,5-3.57,5.41a2.49,2.49,0,0,1-1.68,0c-1.67-.36-2.73-1.9-3.13-4.55,11.59-8.3,8.79-13.16,8.67-13.36a4.42,4.42,0,0,0-3.92-2.06,7.68,7.68,0,0,0-4.08,1.32c-.17.12-4.15,3.06-4.82,10.4a20.25,20.25,0,0,0-.13,3.33l.13,1.37c-1.43,1.92-3,3.8-4,4.95h0a0,0,0,0,1,0,0c-.1.1-.56.62-.74.53s-.23-.39-.26-.69,0-.41,0-.65h0c-.12-3.83-.36-12.18-.41-13.27-.07-1.42-2.51-.45-3.6-.35s-.94.63-.94.63c-1.47,13.92-5.49,21-11.11,22.72-11.13,2.89-13.81-8.52-14-14.67s2.08-11.75,1.9-11.91-.85-.34-2.27-.39c-2.05-.06-3.54-.6-3.84-.16-3.51,5.88-7.34,34.55,13.48,32.86,7.55-1.17,13.3-9,16-16.58h0s.16-.59.38-.57.16.18.18.38c.1,2.61.25,8.11-.27,8.72-12.5,14.57-10.93,26.37-3.09,24.29,9.9-2.62,7.55-25.16,7.42-26.21,0-.63,2.93-4.37,5.54-7.58a6.1,6.1,0,0,0,5.9,4.48h.35C669.38,424.35,672.16,420,673.05,416Zm-25.7,32.65c-4.15,4.18-7.46-1.57-2.83-9.43,1.28-2.17,2.38-3.82,3.24-5,.34-.46,1.21-1.55,1.72-1.42.29.08.42.85.47,1.68,0,.66,0,1.4,0,2.2v0h0C649.93,440.91,649.46,446.54,647.35,448.66Zm15.36-36.09c.27-3.82,1.35-8.43,5-8.76a1.46,1.46,0,0,1,.29,0c.66,0,1.06.36,1.53,1,.85,2.31-2.55,7.21-6.51,9.61-.08-.43-.18-.94-.3-1.36A3.67,3.67,0,0,1,662.71,412.57Z" transform="translate(-594.22 -294.72)"/><path class="cls-18" d="M717.37,403.37c-13.21,1.46-7.27-14.71-5-9.24,1.46,3.57,5.75,5.27,7.7,1.6,2.1-4-2.47-4.66-2.68-2.66s-1.34,2.89-2.48.09c-1.49-3.65-7.86-4.37-9.42,3.53-.47,2.93.39,9.5,8.19,9.12,18.5-2.8,26.6,5.21,22.53,22.7-5.29,17.17-24.16,19.81-35.34,3.6-10.93-14-25.05-9.44-31.87,1.29a22.16,22.16,0,0,0-3.5,11.61c0,8,4.26,16.42,16.06,16.35,23.92-.16,17.27-34.14,2.24-23.9-3.11,2.81-.73,7.44,2.65,5.59S682,441.7,688,437.51c5.27-2.91,11.16,8.12,6.29,14.61-6.48,9.82-33.7,8.42-23.83-16.93,3.82-8.77,17.35-18,31.3.78,15.11,20.29,39.59,6.95,39.59-13.51C740.16,407.17,730.57,401.92,717.37,403.37Z" transform="translate(-594.22 -294.72)"/><path class="cls-19" d="M703.23,395.1a2.86,2.86,0,0,0-3.44-2.5c-1.8.26-4.45,2.39-6,5.56,3.51-11,7.69-25.83,1.91-25.6s-5,23.75-5,23.75h0v.07c-.62,9.88-.91,24.87-.91,24.87l3.71,1.81-.3-12c0-.4,0-.89,0-1.37a5.84,5.84,0,0,0,1.24-.37c1.17,1.06,2.47,3.95,3.95,7.28,3.62,8.1,8.57,19.2,17.69,18.75a9.52,9.52,0,0,0,1.06-.11c9.3-1.34,13.78-9.35,12.74-16.32-.8-5.36-4.71-10.61-11.65-10.27-.43,0-.86.07-1.3.13a11.08,11.08,0,0,0-9.23,8.7l-.06.32,3.44.8,0-.36c.6-4.16,2.83-6.72,6.3-7.22a6.73,6.73,0,0,1,.88-.09c3.32-.17,7.53,1.86,8.46,8.11a12.68,12.68,0,0,1-1.9,8.63,11.26,11.26,0,0,1-8,5.14c-7.06,1-11.09-7.81-14.64-15.56-1.92-4.19-3.58-7.84-5.51-9.34C701.59,403.9,703.74,398.52,703.23,395.1Zm-7.56-19c1.56.27.33,7.08-1,11.66-.79,2.65-1.62,4.56-2,4,0,0,.1-3,.41-6.31C693.48,381,694.26,375.9,695.67,376.15Zm-2.14,22.56,0,.05s0,0,0-.06Zm1.15,7.91c-.54.05-.91.19-1.25.21l.26-1.84c1.7-6.58,4.31-9.22,5.49-9.39h.08c.12,0,1-.11,1.09.63C700.7,398.55,698.36,403.77,694.68,406.62Z" transform="translate(-594.22 -294.72)"/><path class="cls-20" d="M740.29,447.55a.61.61,0,0,0-.85-.12.62.62,0,0,0-.12.85l11.52,15.37a.61.61,0,0,0,.49.25.7.7,0,0,0,.36-.12.62.62,0,0,0,.12-.85Z" transform="translate(-594.22 -294.72)"/><path class="cls-21" d="M634.85,321.71h0a.79.79,0,0,0,.51-.17.71.71,0,0,0,.29-.54l.23-1.95c.11-1,.24-2.13.39-3.4a19,19,0,0,1,.46-2.32,11.67,11.67,0,0,1,.82-2.25,7,7,0,0,1,.72-1.17,1.38,1.38,0,0,1,.72-.51,1,1,0,0,1,.86.11,1.29,1.29,0,0,1,.41.74,5.7,5.7,0,0,1,.08,1.73c0,.66-.12,1.24-.2,1.74l0,.27c0,.08,0,.16,0,.25,0,.35-.08.69-.11,1s0,.66-.07,1,0,.64,0,.94a4.28,4.28,0,0,0,.1.9l0,.08a4,4,0,0,0,.25.76,2.17,2.17,0,0,0,.46.67,2.08,2.08,0,0,0,.77.46,1.86,1.86,0,0,0,1,0,2.68,2.68,0,0,0,1.51-.93,6,6,0,0,0,.94-1.6,2.7,2.7,0,0,0,.9,1.16A1.93,1.93,0,0,0,647,319a3.48,3.48,0,0,0,.69-.08,3.13,3.13,0,0,0,1.74-1.14,7.51,7.51,0,0,0,1.15-1.79,3.39,3.39,0,0,0,1.06.28h.07a3.59,3.59,0,0,0,.71-.08,3.19,3.19,0,0,0,1.25-.56,3.48,3.48,0,0,0,.84-.95,4.56,4.56,0,0,0,.51-1.07c.12-.36.23-.72.34-1.13a1.05,1.05,0,0,1,.06-.21c0-.08.05-.16.07-.27l.08-.52a.73.73,0,0,0-.11-.61.78.78,0,0,0-.48-.31.74.74,0,0,0-.61.12.73.73,0,0,0-.31.51c0,.09,0,.17,0,.25s0,.15,0,.24,0,.15,0,.21,0,.14-.06.23c-.07.3-.16.6-.26.9a4.69,4.69,0,0,1-.4.81,2.09,2.09,0,0,1-.46.53,1.67,1.67,0,0,1-.66.3,1.94,1.94,0,0,1-.36,0,1.15,1.15,0,0,1-.57-.16,14.25,14.25,0,0,0,.38-1.53c.12-.59.2-1.17.26-1.73a12.78,12.78,0,0,0,.07-1.61,6.63,6.63,0,0,0-.14-1.4,3.79,3.79,0,0,0-.44-1.23,2.82,2.82,0,0,0-.71-.81,2.14,2.14,0,0,0-1.07-.49,3.29,3.29,0,0,0-1.17,0,3.13,3.13,0,0,0-1.86,1.28,8.73,8.73,0,0,0-1.15,2.33,16.64,16.64,0,0,0-.41,1.68c-.12.62-.22,1.28-.29,2a1,1,0,0,0-.11.3v.06c-.09.51-.2,1.06-.34,1.65a12,12,0,0,1-.48,1.63,5.56,5.56,0,0,1-.66,1.29,1.32,1.32,0,0,1-.84.59l-.14,0a.34.34,0,0,1-.23-.08.68.68,0,0,1-.16-.26,2.87,2.87,0,0,1-.14-.44,4.55,4.55,0,0,1-.08-.67,6.87,6.87,0,0,1,0-.78c0-.3,0-.61.08-.92s.07-.62.1-.9a2.36,2.36,0,0,0,0-.28,1,1,0,0,1,0-.25q.06-.42.12-.93c0-.33.06-.68.08-1s0-.71,0-1.07a5.48,5.48,0,0,0-.12-1,3.12,3.12,0,0,0-.94-1.71,2.38,2.38,0,0,0-2.17-.34,2.66,2.66,0,0,0-1.21.65,5,5,0,0,0-.44.47.81.81,0,0,0-.64-.54.69.69,0,0,0-.58.16.83.83,0,0,0-.29.52c-.12,1.07-.24,2.13-.37,3.18s-.25,2.06-.37,3v0a.43.43,0,0,0,0,.05.38.38,0,0,0,0,.15c-.16,1.28-.29,2.4-.4,3.37s-.18,1.63-.22,1.93a.77.77,0,0,0,.17.58A.75.75,0,0,0,634.85,321.71Zm14.26-9.81a.68.68,0,0,0-.24.54,4.74,4.74,0,0,0,.1,1.31,3.74,3.74,0,0,0,.42,1.12,8.79,8.79,0,0,1-.92,1.66,2,2,0,0,1-1.12.87.66.66,0,0,1-.71-.19,2,2,0,0,1-.43-1,8.61,8.61,0,0,1-.11-1.6,15.75,15.75,0,0,1,.13-1.82c.08-.61.17-1.18.27-1.7a10.07,10.07,0,0,1,.31-1.22,6.9,6.9,0,0,1,.8-1.77,1.68,1.68,0,0,1,1-.8,1.37,1.37,0,0,1,.28,0,1.27,1.27,0,0,1,.28,0,1,1,0,0,1,.44.2,1.69,1.69,0,0,1,.56,1.08,8.69,8.69,0,0,1,.1,2.05c0,.43-.07.87-.13,1.3a.74.74,0,0,0-.52-.22A.78.78,0,0,0,649.11,311.9Z" transform="translate(-594.22 -294.72)"/><path class="cls-22" d="M640.78,392.74c0-7-13.44-6.41-18.59,5.59,0,0,1.87.42,3.57.61s1.43-.52,1.84-1.54,4.56-8.52,9.33-6.78c3.4,1.94-.17,7.33-6.35,9.1,0,0-9.59,3-15.49-3.67s-5.33-13.44-3.67-17.8c1.77-4.65,7.68-9,12.73-8.41,4.92,9.89,16.66,13.86,29.63,7.33,19.33-9.73,30.72-21.37,43.3-16.2.85.37,3,1.92,3.25,1.51a7,7,0,0,1,1.37-2c.11-.28-11.5-6.82-29.54,3.07-22.59,11.93-35.91,18.78-43.39.84-2.79-8.43-.25-18.58,4.47-26.41.26-.45.54-.89.83-1.32s.73-1.1,1.12-1.62c.16-.23.34-.46.51-.68a26,26,0,0,1,8.69-7.63,14.64,14.64,0,0,1,7-.88c3.24.52,1.16,4.5-.11,6-3.74,4.33-9.57,4.57-14.77,3.51l-.21-.05c-.54-.13-.65-.1-.73,0s-.72,1.21-.52,1.47a.91.91,0,0,0,.4.24c6.95,1.7,14,2.45,18.66-4,2-2.7,1.27-5.46-1-7.47-2.59-2.28-8.66-.77-12.07.58l0,0-.3.12s0,0,0,0a24.7,24.7,0,0,0-10.06,7.6h0l-.2.27c-.13.16-.3.39-.47.62l-.49.66h0a44.15,44.15,0,0,0-5,9.57C621,354,621,362,623.4,368.16c-6.53,0-18.76,4.52-17.1,20.67C608.62,407.91,638.44,407,640.78,392.74Z" transform="translate(-594.22 -294.72)"/><path class="cls-23" d="M611,340.91c-.4-.64-2.82-2.73-1.67-.87,2.81,4.59-15.25,11.68-12.76-.31.86-4.16,5.94-6.08,9.52-7,5.66-1.46,11.78-.67,17.47.09.84.11,1.7.27,2.58.46l.2,0c.54.11,1.08.23,1.63.37l.48.11s.12,0,.29-.17,1.28-1.54,1.12-1.57c-10-2.51-20.68-4.81-30.21-.5-7.6,3.44-7,13.25.39,16.54C604.63,350.13,614.91,347.28,611,340.91Z" transform="translate(-594.22 -294.72)"/></g></g></svg>